<svg xmlns="http://www.w3.org/2000/svg" width="320" height="220" viewBox="0 0 320 220">
    <defs>
        <linearGradient id="a" x1="36.705%" x2="36.705%" y1="57.892%" y2="18.911%">
            <stop offset="0%" stop-color="#DEDEDE" stop-opacity="0"/>
            <stop offset="100%" stop-color="#EFEFEF"/>
        </linearGradient>
        <linearGradient id="b" x1="50%" x2="50%" y1="7.62%" y2="122.744%">
            <stop offset="0%" stop-color="#E3E3E3" stop-opacity="0"/>
            <stop offset="100%" stop-color="#E3E3E3"/>
        </linearGradient>
        <linearGradient id="c" x1="50%" x2="50%" y1="7.62%" y2="123.693%">
            <stop offset="0%" stop-color="#FFF" stop-opacity="0"/>
            <stop offset="100%" stop-color="#FFF"/>
        </linearGradient>
    </defs>
    <g fill="none" fill-rule="evenodd">
        <path fill="url(#a)" d="M0 197h320v57H0z" transform="translate(0 -10)"/>
        <path fill="url(#b)" d="M25.184 0h266.755l-18.87 69.746L256.541 135H68.682z" transform="translate(0 -10)"/>
        <path fill="url(#c)" d="M25.184 0h266.755l-18.87 69.746L256.541 135H68.682z" transform="translate(0 -10)"/>
        <g transform="translate(60 61)">
            <path fill="#F6F6F6" d="M3.33 0h193.34A3.33 3.33 0 0 1 200 3.33v116.038H0V3.33A3.33 3.33 0 0 1 3.33 0z"/>
            <path fill="#D8D8D8" d="M0 119.368h200V126H0z"/>
            <path fill="#4A4A4A" d="M65 122.684h66.667V126H65z"/>
            <path fill="#EBEBEB" d="M.78 118.983L198.904.787v118.196z"/>
            <ellipse cx="98.333" cy="59.684" fill="#D8D8D8" rx="18.333" ry="18.237"/>
        </g>
    </g>
</svg>
