<svg xmlns="http://www.w3.org/2000/svg" width="24" height="23" viewBox="0 0 24 23">
    <path fill="#414A55" fill-rule="nonzero" d="M21.799 13.665a4.362 4.362 0 1 1-4.327 7.577 9.77 9.77 0 0 1-5.474 1.666 9.77 9.77 0 0 1-5.47-1.665 4.363 4.363 0 0 1-4.329-7.577 9.818 9.818 0 0 1 5.438-9.374 4.363 4.363 0 0 1 8.724.001 9.818 9.818 0 0 1 5.438 9.372zm-2.164-.575a7.633 7.633 0 0 0-3.818-6.614A4.362 4.362 0 0 1 12 8.726a4.362 4.362 0 0 1-3.818-2.25 7.633 7.633 0 0 0-3.818 6.614 4.365 4.365 0 0 1 3.76 6.58 7.6 7.6 0 0 0 3.876 1.056 7.6 7.6 0 0 0 3.878-1.057 4.364 4.364 0 0 1 3.758-6.58v.001zM12 6.545a2.182 2.182 0 1 0 0-4.363 2.182 2.182 0 0 0 0 4.363zm-7.636 13.09a2.182 2.182 0 1 0 0-4.363 2.182 2.182 0 0 0 0 4.363zm15.272 0a2.182 2.182 0 1 0 0-4.363 2.182 2.182 0 0 0 0 4.363z"/>
</svg>
