<svg xmlns="http://www.w3.org/2000/svg" width="115" height="108" viewBox="0 0 115 108">
    <g fill="#6FDF83" fill-rule="evenodd" opacity=".3">
        <path d="M44.527 16.987l3.93-3.962a1.5 1.5 0 0 0 .139-1.952L41.012.88a2 2 0 0 0-3.024-.214L30.92 7.79a8 8 0 0 0-1.138 9.82c3.873 6.308 8.337 12.01 13.393 17.106 5.025 5.066 10.644 9.543 16.858 13.432A8 8 0 0 0 69.956 47l7.024-7.08a2 2 0 0 0-.214-3.004l-10.118-7.65a1.5 1.5 0 0 0-1.97.14l-3.626 3.81a.608.608 0 0 1-.32.17c-1.246.927-4.493-1.255-9.742-6.547-5.18-5.221-7.356-8.477-6.53-9.769a.5.5 0 0 1 .067-.083zM40.404 87.395V76.817H14.43v15.605l5.757-5.804 3.34 3.367 9.722-9.802 7.155 7.212zm0 2.178l-7.122-7.179-9.723 9.802-3.34-3.366-5.79 5.836v2.515h25.975v-7.608zm0-22.066a.58.58 0 0 1-.578.582H6.35a.58.58 0 0 0-.577.582v22.11a.58.58 0 0 1-.577.582H.577A.58.58 0 0 1 0 90.781V57.034a.58.58 0 0 1 .577-.582h39.25a.58.58 0 0 1 .577.582v10.473zM9.235 70.998h36.363a.58.58 0 0 1 .577.582v30.838a.58.58 0 0 1-.577.582H9.235a.58.58 0 0 1-.577-.582V71.58a.58.58 0 0 1 .577-.582zm10.967 14.546c-1.594 0-2.886-1.302-2.886-2.909 0-1.607 1.292-2.909 2.886-2.909s2.886 1.302 2.886 2.91c0 1.606-1.292 2.908-2.886 2.908zM87.124 98.834c11.45-1.05 20.528-7.989 21.739-16.669 3.723 2.266 6.137 5.881 6.137 9.947 0 3.617-2.046 6.976-5.618 9.366.402 2.308 1.693 3.307 1.736 3.34.537.371.783 1.022.622 1.64a1.59 1.59 0 0 1-1.354 1.16c-.054.007-.405.049-.954.049-1.65 0-5.081-.4-7.67-3.14h-2.018c-5.32 0-10.013-2.227-12.744-5.596l.124-.097z"/>
        <path d="M84 94.184h-2.514C78.262 97.514 73.99 98 71.934 98c-.684 0-1.12-.051-1.188-.059-.816-.098-1.484-.659-1.686-1.41-.2-.752.106-1.543.774-1.994.054-.04 1.662-1.254 2.162-4.06C67.548 87.571 65 83.49 65 79.091 65 70.769 73.524 64 84 64s19 6.77 19 15.091c0 8.322-8.524 15.093-19 15.093z"/>
    </g>
</svg>
