<svg xmlns="http://www.w3.org/2000/svg" width="84" height="84" viewBox="0 0 84 84">
    <g fill="none" fill-rule="evenodd">
        <circle cx="42" cy="42" r="42" fill="#217CE6"/>
        <path fill="#FFF" d="M53.197 53.39v-5.3h3.468v5.3h5.3v3.47h-5.3v5.3h-3.468v-5.3h-5.3v-3.47h5.3zm-4.505-14.486a17.626 17.626 0 0 0-4.332 2.359 19.771 19.771 0 0 0-3.498-.31c-10.684 0-19.345 8.52-19.345 19.028A18.7 18.7 0 0 0 23.824 69h-3.859A21.58 21.58 0 0 1 18 59.981c0-9.667 6.364-17.892 15.246-20.938-3.883-2.47-6.453-6.773-6.453-11.668 0-7.663 6.299-13.875 14.07-13.875 7.77 0 14.068 6.212 14.068 13.875 0 4.805-2.476 9.04-6.239 11.53zm-7.83-1.123c5.828 0 10.552-4.659 10.552-10.406 0-5.747-4.724-10.406-10.552-10.406-5.827 0-10.552 4.659-10.552 10.406 0 5.747 4.725 10.406 10.552 10.406zM54.931 69c-7.77 0-14.069-6.212-14.069-13.875S47.161 41.25 54.931 41.25C62.701 41.25 69 47.462 69 55.125S62.701 69 54.931 69zm0-3.469c5.828 0 10.552-4.659 10.552-10.406 0-5.747-4.724-10.406-10.552-10.406-5.828 0-10.552 4.659-10.552 10.406 0 5.747 4.724 10.406 10.552 10.406z"/>
    </g>
</svg>
