<svg xmlns="http://www.w3.org/2000/svg" width="136" height="136" viewBox="0 0 136 136">
    <g fill="none" fill-rule="evenodd">
        <circle cx="68" cy="68" r="66" stroke="#CBD1DA" stroke-width="4"/>
        <g fill="#414A55" fill-rule="nonzero">
            <path d="M103.981 46.876c.002-.032.019-.06.019-.092 0-.107-.047-.199-.062-.301-.022-.155-.038-.305-.092-.452-.05-.135-.127-.25-.203-.372-.073-.121-.14-.24-.237-.347-.107-.116-.234-.201-.363-.293-.085-.061-.145-.144-.241-.195l-33.75-17.597c-.065-.033-.137-.032-.203-.059a2.22 2.22 0 0 0-.43-.123A2.205 2.205 0 0 0 68 27c-.142 0-.278.018-.42.044a2.2 2.2 0 0 0-.432.126c-.065.026-.135.024-.199.057l-33.75 17.597c-.096.05-.156.134-.24.195-.13.092-.257.177-.364.293-.097.106-.164.226-.237.347-.076.122-.152.237-.203.372-.054.147-.07.297-.092.452-.015.102-.062.194-.062.3 0 .033.017.06.019.093.006.147.052.287.088.432.037.145.063.29.127.421.014.03.011.062.027.09.028.054.087.074.12.124.159.248.358.454.601.622.081.056.15.113.238.158.312.162.652.277 1.03.277h67.5c.378 0 .718-.115 1.03-.277.088-.045.157-.102.238-.158.243-.168.442-.374.602-.622.032-.05.09-.07.12-.123.015-.03.012-.062.026-.091.064-.132.09-.276.127-.42.036-.146.082-.286.088-.433zM68 31.695l24.69 12.873H43.31L68 31.695zM60 82.741c0 1.247.997 2.259 2.226 2.259h11.548C75.003 85 76 83.988 76 82.741c0-.965-.603-1.775-1.443-2.098V56.357A2.245 2.245 0 0 0 76 54.26C76 53.012 75.003 52 73.774 52H62.226C60.997 52 60 53.012 60 54.259c0 .965.603 1.775 1.443 2.098v24.286A2.245 2.245 0 0 0 60 82.74zm5.896-2.259V56.518h4.208v23.964h-4.208zM40 82.741c0 1.247.997 2.259 2.226 2.259h11.548C55.003 85 56 83.988 56 82.741c0-.965-.603-1.775-1.443-2.098V56.357A2.245 2.245 0 0 0 56 54.26C56 53.012 55.003 52 53.774 52H42.226C40.997 52 40 53.012 40 54.259c0 .965.603 1.775 1.443 2.098v24.286A2.245 2.245 0 0 0 40 82.74zm5.896-2.259V56.518h4.208v23.964h-4.208zM79 82.741c0 1.247.997 2.259 2.226 2.259h11.548C94.003 85 95 83.988 95 82.741c0-.965-.603-1.775-1.443-2.098V56.357A2.245 2.245 0 0 0 95 54.26C95 53.012 94.003 52 92.774 52H81.226C79.997 52 79 53.012 79 54.259c0 .965.603 1.775 1.443 2.098v24.286A2.245 2.245 0 0 0 79 82.74zm5.896-2.259V56.518h4.208v23.964h-4.208zM35 89.5c0 1.38 1.006 2.5 2.247 2.5h61.506c1.24 0 2.247-1.12 2.247-2.5S99.994 87 98.753 87H37.247C36.007 87 35 88.12 35 89.5zM101.749 95H35.25C34.008 95 33 96.12 33 97.5s1.008 2.5 2.251 2.5h66.498c1.243 0 2.251-1.12 2.251-2.5s-1.008-2.5-2.251-2.5z"/>
        </g>
    </g>
</svg>
