<svg xmlns="http://www.w3.org/2000/svg" xmlns:xlink="http://www.w3.org/1999/xlink" width="240" height="240" viewBox="0 0 240 240">
    <defs>
        <circle id="a" cx="120" cy="136" r="48"/>
    </defs>
    <g fill="none" fill-rule="evenodd">
        <path fill="#5CB85C" d="M118 32h4v80h-4zM97.87 145.302l2.828 2.828-56.568 56.568-2.828-2.828zM142.13 145.302l56.568 56.568-2.828 2.828-56.568-56.568z"/>
        <g transform="translate(88)">
            <circle cx="32" cy="32" r="32" fill="#5CB85C"/>
            <path fill="#FFF" d="M26.448 27.113l1.952-1.985a1.96 1.96 0 0 0 .18-2.539l-3.555-4.82a2.614 2.614 0 0 0-3.968-.282l-2.096 2.132a7.895 7.895 0 0 0-.967 9.873 61.445 61.445 0 0 0 7.532 9.349 60.843 60.843 0 0 0 9.156 7.634 7.639 7.639 0 0 0 9.747-.957l2.166-2.203a2.614 2.614 0 0 0-.278-3.912l-4.758-3.628a1.96 1.96 0 0 0-2.587.184l-1.784 1.87a.692.692 0 0 1-.187.135c-.814.61-2.936-.828-6.367-4.317-3.117-3.17-4.57-5.241-4.359-6.214a.654.654 0 0 1 .173-.32z"/>
        </g>
        <g transform="translate(0 176)">
            <circle cx="32" cy="32" r="32" fill="#5CB85C"/>
            <path fill="#FFF" d="M44 37.604V30.22H26v10.895l3.99-4.052 2.314 2.35 6.738-6.843L44 37.604zm0 1.521l-4.935-5.012-6.739 6.844-2.314-2.35L26 42.68v1.757h18v-5.313zm0-15.406c0 .224-.18.406-.4.406H20.4c-.22 0-.4.182-.4.406V39.97c0 .224-.18.406-.4.406h-3.2c-.22 0-.4-.182-.4-.406V16.406c0-.224.18-.406.4-.406h27.2c.22 0 .4.182.4.406v7.313zm-21.6 2.437h25.2c.22 0 .4.182.4.407v21.53c0 .225-.18.407-.4.407H22.4c-.22 0-.4-.182-.4-.406V26.562c0-.224.18-.406.4-.406zM30 36.313c-1.105 0-2-.91-2-2.032 0-1.122.895-2.031 2-2.031s2 .91 2 2.031c0 1.122-.895 2.032-2 2.032z"/>
        </g>
        <g transform="translate(176 176)">
            <circle cx="32" cy="32" r="32" fill="#5CB85C"/>
            <path fill="#FFF" d="M30.16 40.167c7.327-.668 13.137-5.084 13.912-10.607C46.455 31 48 33.302 48 35.89c0 2.301-1.31 4.439-3.595 5.96.257 1.469 1.083 2.104 1.11 2.125.344.236.501.65.399 1.044a1.016 1.016 0 0 1-.867.738c-.035.004-.259.03-.61.03-1.057 0-3.252-.253-4.91-1.997h-1.291c-3.405 0-6.408-1.417-8.156-3.561l.08-.062zm-2-2.96h-1.609c-2.063 2.12-4.797 2.43-6.113 2.43-.438 0-.717-.033-.76-.038-.523-.062-.95-.42-1.08-.897a1.164 1.164 0 0 1 .496-1.27c.034-.025 1.063-.797 1.383-2.583C17.631 33 16 30.402 16 27.603 16 22.308 21.455 18 28.16 18s12.16 4.308 12.16 9.603c0 5.296-5.455 9.605-12.16 9.605z"/>
        </g>
        <g>
            <use fill="#5CB85C" xlink:href="#a"/>
            <circle cx="120" cy="136" r="45" stroke="#5CB85C" stroke-width="6"/>
        </g>
    </g>
</svg>
