<svg xmlns="http://www.w3.org/2000/svg" width="16" height="18" viewBox="0 0 16 18">
    <path fill="#434A54" fill-rule="evenodd" d="M10.272 4.748l-.909-.705a.284.284 0 0 1-.07-.352.28.28 0 0 1 .28-.212h1.118l.349-1.057a.348.348 0 0 1 .559 0l.35 1.057h1.117a.28.28 0 0 1 .28.212.284.284 0 0 1-.07.352l-.909.705.35 1.057c0 .141 0 .282-.14.353h-.35l-.908-.705-.908.705a.278.278 0 0 1-.35 0c-.139-.07-.139-.212-.139-.353l.35-1.057zM15.79 6.58c.122.109.197.26.21.423v9.374c0 .443-.178.866-.495 1.172a1.599 1.599 0 0 1-1.182.45H1.68a1.599 1.599 0 0 1-1.182-.45 1.628 1.628 0 0 1-.495-1.172V7.003a.494.494 0 0 1 .28-.493L7.547.167a.694.694 0 0 1 .978.14h.07l.42.424a4.23 4.23 0 0 1 4.421-.203 4.306 4.306 0 0 1 2.215 3.868 4.192 4.192 0 0 1-.28 1.62l.49.564h-.07zM1.4 8.695v6.978l3.842-3.524-3.843-3.454zm13.133 7.823L7.966 10.81 6.08 12.501h-.14l-4.47 4.017h13.063zm-3.842-4.37l3.912 3.525V8.695l-3.912 3.454zm4.261-7.752c0-.972-.383-1.905-1.064-2.592A3.617 3.617 0 0 0 11.32.731C9.33.768 7.724 2.387 7.687 4.396c0 2.024 1.626 3.665 3.632 3.665 2.007 0 3.633-1.641 3.633-3.665zM7.896 1.717L1.4 7.356v.352l4.402 3.947 1.956-1.762h.489l1.956 1.762 4.4-3.947v-.423a4.384 4.384 0 0 1-3.283 1.48c-2.392 0-4.33-1.956-4.33-4.37a4.608 4.608 0 0 1 .907-2.678z"/>
</svg>
