<svg xmlns="http://www.w3.org/2000/svg" width="14" height="14" viewBox="0 0 14 14">
    <path fill="#434A54" fill-rule="evenodd" d="M12.448 6.408a4.367 4.367 0 0 0-1.078.595 4.806 4.806 0 0 0-5.683 4.722c0 .823.208 1.598.574 2.275h-.96a5.508 5.508 0 0 1-.489-2.275c0-2.439 1.584-4.513 3.793-5.282a3.5 3.5 0 1 1 3.843-.035zm-6.35-2.264c-.187.23-.348.482-.478.75a1.75 1.75 0 1 0-.882 2.943c-.242.28-.45.59-.62.922a3.495 3.495 0 0 0-3.243 3.482c0 .641.173 1.242.476 1.759H.407A4.236 4.236 0 0 1 0 12.183c0-1.812 1.136-3.363 2.746-4a2.625 2.625 0 1 1 3.352-4.04zM10.5 6.125a2.625 2.625 0 1 0 0-5.25 2.625 2.625 0 0 0 0 5.25z"/>
</svg>
