<svg xmlns="http://www.w3.org/2000/svg" width="16" height="16" viewBox="0 0 16 16">
    <path fill="#FFF" fill-rule="evenodd" d="M6.655 14.841c-1.534 1.534-4.007 1.547-5.525.03-1.518-1.519-1.505-3.992.029-5.526l2.777-2.777a3.922 3.922 0 0 1 4.751-.63L7.404 7.223c-.88-.255-1.965.041-2.765.842l-1.984 1.983c-1.096 1.096-1.246 2.722-.335 3.633.91.91 2.537.76 3.633-.335l1.136-1.137a.777.777 0 1 1 1.1 1.1L6.654 14.84zm2.69-13.682c1.534-1.534 4.007-1.547 5.525-.03 1.518 1.519 1.505 3.992-.029 5.526l-2.777 2.777a3.922 3.922 0 0 1-4.751.63l1.283-1.284c.88.255 1.965-.041 2.765-.842l1.984-1.983c1.096-1.096 1.246-2.722.335-3.633-.91-.91-2.537-.76-3.633.335L8.911 3.792a.777.777 0 0 1-1.1-1.1L9.346 1.16z"/>
</svg>