<svg xmlns="http://www.w3.org/2000/svg" width="14" height="14" viewBox="0 0 14 14">
    <g fill="none" fill-rule="evenodd">
        <rect width="14" height="14" fill="#AAB2BD" rx="2"/>
        <path fill="#FFF" fill-rule="nonzero" d="M9.758 6.208h-.415v-.976C9.343 4.002 8.292 3 7 3S4.657 4.001 4.657 5.232v.976h-.415a.237.237 0 0 0-.242.23v4.331c0 .128.109.231.242.231h5.516a.237.237 0 0 0 .242-.23V6.438a.237.237 0 0 0-.242-.231zm-2.26 2.646v1.217c0 .106-.09.192-.201.192h-.594a.197.197 0 0 1-.202-.192V8.854a.81.81 0 0 1-.365-.672c0-.454.387-.822.864-.822s.864.368.864.822a.81.81 0 0 1-.365.672zm.726-2.646H5.776v-.976c0-.643.549-1.166 1.224-1.166.675 0 1.224.523 1.224 1.166v.976z"/>
    </g>
</svg>
