<svg xmlns="http://www.w3.org/2000/svg" width="18" height="18" viewBox="0 0 18 18">
    <path fill="#1B1B1B" fill-rule="evenodd" d="M9 18c-4.963 0-9-4.037-9-9s4.037-9 9-9 9 4.037 9 9-4.037 9-9 9zM9 1.5C4.864 1.5 1.5 4.864 1.5 9s3.364 7.5 7.5 7.5 7.5-3.364 7.5-7.5S13.136 1.5 9 1.5zm1.792 7.758c-1.088.88-1.046 1.853-1.044 1.895a.755.755 0 0 1-.75.798.743.743 0 0 1-.745-.677c-.006-.072-.137-1.78 1.594-3.182.483-.39.653-.73.653-1.304 0-.871-.673-1.58-1.5-1.58-.855 0-1.5.644-1.5 1.5a.75.75 0 1 1-1.5 0c0-1.683 1.318-3 3-3 1.654 0 3 1.381 3 3.08 0 1.032-.373 1.793-1.208 2.47zm-1.668 3.481c.408.071.685.438.615.846l-.007.042a.751.751 0 0 1-1.478-.254c.07-.41.461-.706.87-.634z"/>
</svg>
