<svg xmlns="http://www.w3.org/2000/svg" width="53" height="40" viewBox="0 0 53 40">
    <path fill="#101215" fill-rule="evenodd" d="M7.21 0h28.844c3.983 0 7.211 3.582 7.211 8v24c0 4.418-3.228 8-7.21 8H7.21C3.228 40 0 36.418 0 32V8c0-4.418 3.228-8 7.21-8zm17.668 22.162h3.244l-6.49-10.27-6.49 10.27h3.246v5.946h6.49v-5.946zm18.387 1.085l2.73 1.057c.036.013.073.02.11.02.224 0 .405-.252.405-.563V16.24a.769.769 0 0 0-.015-.152c-.06-.299-.284-.474-.5-.39l-2.73 1.057V9.316l7.701-2.757c.867-.31 1.754.396 1.98 1.576.036.183.054.37.054.56v22.07c0 1.22-.726 2.208-1.622 2.208-.14 0-.278-.024-.412-.072l-7.7-2.743v-6.911zm-33.8-16.76H33.26c1.48 0 2.975 1.65 2.975 3.31v19.865c0 1.66-1.485 3.311-2.975 3.311H9.464c-1.484 0-2.974-1.656-2.974-3.31V9.796c0-1.657 1.484-3.31 2.974-3.31z"/>
</svg>
