<svg xmlns="http://www.w3.org/2000/svg" width="16" height="16" viewBox="0 0 16 16">
    <path fill="#434A54" fill-rule="evenodd" d="M6.895 14.796c-1.59 1.593-4.152 1.607-5.724.03-1.573-1.576-1.56-4.145.03-5.738l2.877-2.884A4.056 4.056 0 0 1 9 5.55L7.671 6.883c-.913-.264-2.036.043-2.865.874L2.75 9.817c-1.135 1.139-1.29 2.828-.347 3.773.943.946 2.628.79 3.763-.347l1.178-1.18a.804.804 0 0 1 1.138 0 .809.809 0 0 1 0 1.14l-1.588 1.593zm2.21-13.592c1.59-1.593 4.152-1.607 5.724-.03 1.573 1.576 1.56 4.145-.03 5.738l-2.877 2.884A4.056 4.056 0 0 1 7 10.45l1.329-1.332c.913.264 2.036-.043 2.865-.874l2.055-2.06c1.135-1.139 1.29-2.828.347-3.773-.943-.946-2.628-.79-3.763.347l-1.178 1.18a.804.804 0 0 1-1.138 0 .809.809 0 0 1 0-1.14l1.588-1.593z"/>
</svg>
