<svg xmlns="http://www.w3.org/2000/svg" width="96" height="73" viewBox="0 0 96 73">
    <path fill="#434A54" fill-rule="evenodd" d="M13.061 0h52.245c7.214 0 13.061 6.491 13.061 14.498v43.494c0 8.007-5.847 14.498-13.06 14.498H13.06C5.848 72.49 0 65.999 0 57.992V14.498C0 6.491 5.848 0 13.061 0zm32 40.163h5.878L39.184 21.551 27.429 40.163h5.877V50.94h11.755V40.163zm33.306 1.966l4.946 1.915c.064.025.13.038.197.038.406 0 .735-.457.735-1.02V29.428c0-.092-.01-.184-.027-.274-.11-.542-.514-.86-.905-.708l-4.946 1.916v-13.48l13.949-4.995c1.57-.56 3.176.718 3.588 2.855.064.331.096.673.096 1.015v39.997c0 2.21-1.316 4.001-2.939 4.001-.251 0-.502-.044-.745-.13l-13.949-4.971V42.129zM17.143 11.755h43.102c2.681 0 5.388 2.992 5.388 6v36c0 3.007-2.69 6-5.388 6H17.143c-2.688 0-5.388-3.002-5.388-6v-36c0-3.004 2.688-6 5.388-6z" opacity=".1"/>
</svg>
