<svg xmlns="http://www.w3.org/2000/svg" width="272" height="192" viewBox="0 0 272 192">
    <g fill="none" fill-rule="evenodd">
        <path fill="#217CE6" d="M15 96h152c8.284 0 15 6.716 15 15v48.66c0 8.285-6.716 15-15 15H14.025L0 192v-81c0-8.284 6.716-15 15-15z"/>
        <path fill="#FFF" d="M11 120h160v12H11zM11 140h117v12H11z"/>
        <g>
            <path fill="#FFF" d="M257 0H143c-8.284 0-15 6.716-15 15v48.66c0 8.285 6.716 15 15 15h114.965L272 96V15c0-8.284-6.716-15-15-15z"/>
            <path fill="#CDCDCD" d="M140 24h120v12H140zM143 44h117v12H143z"/>
        </g>
    </g>
</svg>
