<svg xmlns="http://www.w3.org/2000/svg" width="40" height="40" viewBox="0 0 40 40">
    <path fill="#FFF" fill-rule="evenodd" d="M16.638 37.103c-3.835 3.834-10.02 3.867-13.813.072-3.795-3.794-3.762-9.978.072-13.813l6.944-6.943c3.235-3.235 8.143-3.764 11.877-1.572l-3.207 3.207c-2.203-.636-4.913.104-6.914 2.105l-4.96 4.96c-2.739 2.738-3.113 6.804-.837 9.08 2.277 2.277 6.343 1.903 9.082-.836l2.841-2.842a1.943 1.943 0 1 1 2.748 2.748l-3.833 3.834zm6.724-34.206c3.835-3.834 10.02-3.867 13.813-.072 3.795 3.794 3.762 9.978-.072 13.813l-6.944 6.943c-3.235 3.235-8.143 3.764-11.877 1.572l3.207-3.207c2.203.636 4.913-.104 6.914-2.105l4.96-4.96c2.739-2.738 3.113-6.804.837-9.08-2.277-2.277-6.343-1.903-9.082.836L22.277 9.48a1.943 1.943 0 1 1-2.748-2.748l3.833-3.834z"/>
</svg>
